<svg xmlns="http://www.w3.org/2000/svg" viewBox="0 0 73 73">
    <path class="latepoint-step-svg-base" d="M4.7233448,23.4262314c1.6196971,0.337038,4.4639482,1.2246094,4.9765625,1.2246094
		c0.8955622,0,1.0312843-1.3012924,0.1518555-1.484375c-1.9912591-0.4145584-2.7713714-0.7819729-4.8227539-1.2089844
		c-0.4082031-0.0874023-0.8027344,0.1757813-0.887207,0.581543C4.0573292,22.9442978,4.3175831,23.3417587,4.7233448,23.4262314z" />
    <path class="latepoint-step-svg-base" d="M10.9762745,19.8066025c0.144043,0.2192383,0.3833008,0.3383789,0.6274414,0.3383789
		c0.5899696,0,0.9558563-0.6604652,0.6264648-1.1616211c-1.1884766-1.8100586-2.59375-3.4785147-4.1762695-4.9594717
		c-0.3032227-0.2832031-0.7773438-0.2680664-1.0600586,0.034668c-0.2832031,0.3027344-0.2675781,0.7773438,0.034668,1.0600586
		C8.5246143,16.5190048,9.8527393,18.0961533,10.9762745,19.8066025z" />
    <path class="latepoint-step-svg-base" d="M15.6989307,9.2524042c-0.418457-0.0317383-0.769043,0.2910156-0.7929688,0.7041016
		c-0.1479492,2.487793-0.0957031,5.0048828,0.1547852,7.4809561c0.0390625,0.3867188,0.3647461,0.6748047,0.7451172,0.6748047
		c0.4457436,0,0.791996-0.3842907,0.7470703-0.8251953c-0.2421875-2.39746-0.2924805-4.8334951-0.1499023-7.2416983
		C16.4279346,9.6317987,16.112505,9.2768183,15.6989307,9.2524042z" />
    <path class="latepoint-step-svg-base" d="M19.0403614,62.6744003c9.5422974,0.4227295,22.1345196,0.7669678,31.6825542,1.0326538
		c2.0336914,0.0566406,4.1360474,0.2133179,5.878418-0.8370972c0.2503052-0.1508789,0.5575562-0.4707642,0.6748047-0.7385254
		c0.1908569-0.4359741-0.0411377-0.9656372-0.4159546-1.2589722s-1.3696899-0.0440674-1.84552-0.0334473
		c-0.3218994,0.0072021-0.6586914,0.0141602-0.9984131,0.0211792c0.8277054-0.8302956,1.2008667-1.8765869,1.1567993-2.9544678
		c-0.2223511-5.4171753-0.348938-9.7706909-0.401001-13.8059692c4.2993774-6.0353394,9.2467041-12.1600342,14.0784912-18.4216309
		c0.0198975-0.5657959,0.053894-0.8327637-0.0328369-1.2471313c0.0887451-0.2601929,0.0299683-0.5576782-0.1719971-0.7655029
		c-3.5903702-3.6888313-3.4343643-4.4806309-4.1938477-4.512207c-0.2402344-0.015625-0.4389648,0.081543-0.5883789,0.2475586
		c-3.2895889,3.6525669-6.1748505,7.9182701-8.9701538,12.0101318c0.0740356-2.2783203,0.1694336-4.5547485,0.3080444-6.7943115
		c0.1337891-2.1669922-1.5180664-4.0410156-3.6821289-4.1777344c-9.6884766-0.6098633-23.5908184-1.2041016-34.800293-0.5683594
		c-0.5235596,0.0298462-1.020752,0.1621094-1.4731445,0.3756104c-1.3308716,0.2626953-2.5427856,1.3068848-3.1723022,2.5577393
		c-1.14709,2.2790909-0.8694754,2.2196789-1.329895,30.392334C10.6228981,60.587925,12.8014507,62.398056,19.0403614,62.6744003z
		 M56.482132,31.7475204c2.480957-3.6337891,5.0415039-7.3823242,7.9003906-10.6699219
		c0.8613281,1.0888672,1.7714844,2.1416016,2.7167969,3.1420898C61.071579,31.351778,54.9651566,38.8672829,49.8991241,46.8188095
		c-4.9677429-2.3292274-8.3152275-5.0833893-12.9301758-8.0927734c0.8936272-1.359333,1.2069893-2.0359192,1.7744141-3.1914063
		c1.4018555,0.9404297,2.8823242,1.8945313,4.3208008,2.8222656c5.4951057,3.5390663,5.4074211,3.7446671,5.9627686,3.4509277
		C49.9197159,41.3383484,56.1744156,32.1977043,56.482132,31.7475204z M14.4137745,23.8437119
		c0.0327148-1.3359375,1.0600586-2.3999023,2.3901367-2.4750977c8.8149414-0.5009766,20.7875957-0.3037109,34.6206055,0.5673828
		c1.3398438,0.0844727,2.362793,1.2456055,2.2797852,2.5878906c-0.1868896,3.0209351-0.3168335,6.1072388-0.3861084,9.1760254
		c-1.5569878,2.2344093-3.060421,4.3225746-4.7910156,6.4386597c-3.0982552-2.0906677-6.6150932-4.2565727-9.6539307-6.3265991
		c-0.1791992-0.1210938-0.3999023-0.1611328-0.6108398-0.1054688c-0.7728767,0.1986389-0.5210228,1.2492561-2.9604492,4.8115234
		c-0.1747627,0.2543373-0.201931,0.6171951,0.0743408,0.920105c0.0396729,0.4812012,0.0579834,0.9837646,0.1539307,1.4086914
		c4.6937256,3.3377075,9.1712036,6.0063477,14.1136475,8.8283691c0.5525513,0.3154907,1.2504883,0.140686,1.5951538-0.3942261
		c0.6627197-1.0286255,1.3549805-2.0599365,2.0657959-3.0933838c0.0650635,3.4772949,0.1841431,7.2590942,0.3692017,11.7796631
		c0.0573692,1.3929405-1.0435982,2.5516052-2.4375,2.5556641c-10.6908722,0.0428123-23.1433048-0.6689453-34.2724609-0.6689453
		c-0.8717651,0-1.7561407,0.1188622-2.5859375-0.7285156c-0.4643555-0.4736328-0.7109375-1.1025391-0.6948242-1.7685547
		C13.9541626,46.1924324,14.1386328,35.0912399,14.4137745,23.8437119z" />
</svg>
